G04 EAGLE Gerber RS-274X export*
G75*
%MOMM*%
%FSLAX34Y34*%
%LPD*%
%IN*%
%IPPOS*%
%AMOC8*
5,1,8,0,0,1.08239X$1,22.5*%
G01*
%ADD10C,0.254000*%


D10*
X260000Y240000D02*
X280000Y220000D01*
X520000Y220000D01*
X540000Y240000D01*
X540000Y740000D01*
X520000Y760000D01*
X280000Y760000D01*
X260000Y740000D01*
X260000Y240000D01*
X305000Y719719D02*
X304937Y719161D01*
X304812Y718614D01*
X304627Y718084D01*
X304383Y717578D01*
X304084Y717102D01*
X303734Y716663D01*
X303337Y716266D01*
X302898Y715916D01*
X302422Y715617D01*
X301916Y715373D01*
X301386Y715188D01*
X300839Y715063D01*
X300281Y715000D01*
X299719Y715000D01*
X299161Y715063D01*
X298614Y715188D01*
X298084Y715373D01*
X297578Y715617D01*
X297102Y715916D01*
X296663Y716266D01*
X296266Y716663D01*
X295916Y717102D01*
X295617Y717578D01*
X295373Y718084D01*
X295188Y718614D01*
X295063Y719161D01*
X295000Y719719D01*
X295000Y720281D01*
X295063Y720839D01*
X295188Y721386D01*
X295373Y721916D01*
X295617Y722422D01*
X295916Y722898D01*
X296266Y723337D01*
X296663Y723734D01*
X297102Y724084D01*
X297578Y724383D01*
X298084Y724627D01*
X298614Y724812D01*
X299161Y724937D01*
X299719Y725000D01*
X300281Y725000D01*
X300839Y724937D01*
X301386Y724812D01*
X301916Y724627D01*
X302422Y724383D01*
X302898Y724084D01*
X303337Y723734D01*
X303734Y723337D01*
X304084Y722898D01*
X304383Y722422D01*
X304627Y721916D01*
X304812Y721386D01*
X304937Y720839D01*
X305000Y720281D01*
X305000Y719719D01*
X505000Y719719D02*
X504937Y719161D01*
X504812Y718614D01*
X504627Y718084D01*
X504383Y717578D01*
X504084Y717102D01*
X503734Y716663D01*
X503337Y716266D01*
X502898Y715916D01*
X502422Y715617D01*
X501916Y715373D01*
X501386Y715188D01*
X500839Y715063D01*
X500281Y715000D01*
X499719Y715000D01*
X499161Y715063D01*
X498614Y715188D01*
X498084Y715373D01*
X497578Y715617D01*
X497102Y715916D01*
X496663Y716266D01*
X496266Y716663D01*
X495916Y717102D01*
X495617Y717578D01*
X495373Y718084D01*
X495188Y718614D01*
X495063Y719161D01*
X495000Y719719D01*
X495000Y720281D01*
X495063Y720839D01*
X495188Y721386D01*
X495373Y721916D01*
X495617Y722422D01*
X495916Y722898D01*
X496266Y723337D01*
X496663Y723734D01*
X497102Y724084D01*
X497578Y724383D01*
X498084Y724627D01*
X498614Y724812D01*
X499161Y724937D01*
X499719Y725000D01*
X500281Y725000D01*
X500839Y724937D01*
X501386Y724812D01*
X501916Y724627D01*
X502422Y724383D01*
X502898Y724084D01*
X503337Y723734D01*
X503734Y723337D01*
X504084Y722898D01*
X504383Y722422D01*
X504627Y721916D01*
X504812Y721386D01*
X504937Y720839D01*
X505000Y720281D01*
X505000Y719719D01*
X305000Y259719D02*
X304937Y259161D01*
X304812Y258614D01*
X304627Y258084D01*
X304383Y257578D01*
X304084Y257102D01*
X303734Y256663D01*
X303337Y256266D01*
X302898Y255916D01*
X302422Y255617D01*
X301916Y255373D01*
X301386Y255188D01*
X300839Y255063D01*
X300281Y255000D01*
X299719Y255000D01*
X299161Y255063D01*
X298614Y255188D01*
X298084Y255373D01*
X297578Y255617D01*
X297102Y255916D01*
X296663Y256266D01*
X296266Y256663D01*
X295916Y257102D01*
X295617Y257578D01*
X295373Y258084D01*
X295188Y258614D01*
X295063Y259161D01*
X295000Y259719D01*
X295000Y260281D01*
X295063Y260839D01*
X295188Y261386D01*
X295373Y261916D01*
X295617Y262422D01*
X295916Y262898D01*
X296266Y263337D01*
X296663Y263734D01*
X297102Y264084D01*
X297578Y264383D01*
X298084Y264627D01*
X298614Y264812D01*
X299161Y264937D01*
X299719Y265000D01*
X300281Y265000D01*
X300839Y264937D01*
X301386Y264812D01*
X301916Y264627D01*
X302422Y264383D01*
X302898Y264084D01*
X303337Y263734D01*
X303734Y263337D01*
X304084Y262898D01*
X304383Y262422D01*
X304627Y261916D01*
X304812Y261386D01*
X304937Y260839D01*
X305000Y260281D01*
X305000Y259719D01*
X505000Y259719D02*
X504937Y259161D01*
X504812Y258614D01*
X504627Y258084D01*
X504383Y257578D01*
X504084Y257102D01*
X503734Y256663D01*
X503337Y256266D01*
X502898Y255916D01*
X502422Y255617D01*
X501916Y255373D01*
X501386Y255188D01*
X500839Y255063D01*
X500281Y255000D01*
X499719Y255000D01*
X499161Y255063D01*
X498614Y255188D01*
X498084Y255373D01*
X497578Y255617D01*
X497102Y255916D01*
X496663Y256266D01*
X496266Y256663D01*
X495916Y257102D01*
X495617Y257578D01*
X495373Y258084D01*
X495188Y258614D01*
X495063Y259161D01*
X495000Y259719D01*
X495000Y260281D01*
X495063Y260839D01*
X495188Y261386D01*
X495373Y261916D01*
X495617Y262422D01*
X495916Y262898D01*
X496266Y263337D01*
X496663Y263734D01*
X497102Y264084D01*
X497578Y264383D01*
X498084Y264627D01*
X498614Y264812D01*
X499161Y264937D01*
X499719Y265000D01*
X500281Y265000D01*
X500839Y264937D01*
X501386Y264812D01*
X501916Y264627D01*
X502422Y264383D01*
X502898Y264084D01*
X503337Y263734D01*
X503734Y263337D01*
X504084Y262898D01*
X504383Y262422D01*
X504627Y261916D01*
X504812Y261386D01*
X504937Y260839D01*
X505000Y260281D01*
X505000Y259719D01*
M02*
