G04 EAGLE Gerber RS-274X export*
G75*
%MOMM*%
%FSLAX34Y34*%
%LPD*%
%INSoldermask Top*%
%IPPOS*%
%AMOC8*
5,1,8,0,0,1.08239X$1,22.5*%
G01*
%ADD10C,1.203200*%
%ADD11P,1.649562X8X202.500000*%
%ADD12C,1.524000*%
%ADD13C,1.727200*%
%ADD14P,1.649562X8X22.500000*%
%ADD15C,1.524000*%
%ADD16P,1.852186X8X292.500000*%
%ADD17C,0.959600*%


D10*
X300000Y720000D03*
X500000Y720000D03*
X300000Y260000D03*
X500000Y260000D03*
D11*
X449840Y680000D03*
D12*
X470160Y680000D03*
D11*
X349840Y680000D03*
D12*
X370160Y680000D03*
X381900Y501900D03*
X407300Y501900D03*
X407300Y578100D03*
X381900Y578100D03*
X432700Y501900D03*
X458100Y501900D03*
X432700Y578100D03*
X458100Y578100D03*
D13*
X361900Y267620D02*
X361900Y252380D01*
X387300Y252380D02*
X387300Y267620D01*
X412700Y267620D02*
X412700Y252380D01*
X438100Y252380D02*
X438100Y267620D01*
D14*
X421900Y640000D03*
X498100Y640000D03*
X321900Y640000D03*
X398100Y640000D03*
D11*
X365400Y460000D03*
X314600Y460000D03*
X498100Y460000D03*
X421900Y460000D03*
X492700Y380000D03*
X467300Y380000D03*
D15*
X485400Y339304D02*
X485400Y326096D01*
X434600Y326096D02*
X434600Y339304D01*
X460000Y339304D02*
X460000Y326096D01*
X365400Y340696D02*
X365400Y353904D01*
X314600Y353904D02*
X314600Y340696D01*
X340000Y340696D02*
X340000Y353904D01*
X365400Y400696D02*
X365400Y413904D01*
X314600Y413904D02*
X314600Y400696D01*
X340000Y400696D02*
X340000Y413904D01*
D16*
X397300Y720000D03*
X422700Y720000D03*
D17*
X300000Y300000D03*
X360000Y300000D03*
X460000Y480000D03*
X460000Y420000D03*
X400000Y420000D03*
X480000Y300000D03*
X440000Y620000D03*
X360000Y620000D03*
X420000Y300000D03*
M02*
