M48
;GenerationSoftware,Autodesk,EAGLE,9.6.2*%
;CreationDate,2023-08-05T17:56:12Z*%
FMAT,2
ICI,OFF
METRIC,TZ,000.000
T5C0.350
T4C0.813
T3C1.000
T2C1.016
%
G90
M71
T2
X43810Y26000
X41270Y26000
X38730Y26000
X36190Y26000
T3
X42270Y72000
X39730Y72000
X50000Y26000
X30000Y26000
X50000Y72000
X30000Y72000
T4
X34000Y34730
X36540Y34730
X31460Y34730
X42190Y64000
X49810Y64000
X32190Y64000
X39810Y64000
X36540Y46000
X31460Y46000
X49810Y46000
X42190Y46000
X49270Y38000
X46730Y38000
X48540Y33270
X43460Y33270
X46000Y33270
X31460Y40730
X34000Y40730
X44984Y68000
X47016Y68000
X34984Y68000
X37016Y68000
X38190Y50190
X40730Y50190
X40730Y57810
X38190Y57810
X43270Y50190
X45810Y50190
X43270Y57810
X45810Y57810
X36540Y40730
T5
X36000Y30000
X30000Y30000
X46000Y48000
X46000Y42000
X40000Y42000
X48000Y30000
X44000Y62000
X36000Y62000
X42000Y30000
M30